<svg width="24" height="24" viewBox="0 0 24 24" fill="none" xmlns="http://www.w3.org/2000/svg">
<path d="M15.509 7.51875C15.6275 7.73348 15.7408 7.93903 15.8611 8.15709C15.0344 8.14236 14.2233 8.12778 13.3948 8.11306C13.82 7.40597 14.2396 6.70806 14.6653 6C14.683 6.03042 14.696 6.05139 14.7079 6.07292C14.8458 6.32181 14.9848 6.57028 15.1205 6.82042C15.1442 6.86389 15.1637 6.87278 15.2114 6.85375C16.1225 6.49042 17.0665 6.36792 18.0382 6.49403C19.3722 6.66708 20.5087 7.24292 21.4375 8.2157C22.2625 9.07987 22.7761 10.1074 22.9379 11.2908C23.1893 13.129 22.6776 14.7389 21.3958 16.084C20.514 17.0095 19.4254 17.5714 18.1592 17.7463C16.3293 17.9989 14.7257 17.4888 13.3808 16.2189C12.516 15.4022 11.9807 14.3939 11.7454 13.2278C11.6725 12.866 11.6401 12.4997 11.6389 12.1307C11.6309 9.91765 10.1932 7.97236 8.06122 7.3757C6.25413 6.86986 4.63399 7.27889 3.25899 8.55709C2.38024 9.37389 1.87899 10.4029 1.75815 11.5974C1.60371 13.1242 2.06204 14.4572 3.12135 15.5679C3.94052 16.4268 4.95385 16.9189 6.13372 17.0549C6.9733 17.1517 7.78594 17.0339 8.56858 16.7134C8.58122 16.7082 8.59317 16.7015 8.61289 16.692C8.51094 16.4506 8.40969 16.2113 8.30414 15.9617C9.12233 16.0624 9.92942 16.1617 10.7528 16.2629C10.2546 16.9238 9.76525 17.5729 9.26747 18.2331C9.14261 17.9393 9.02206 17.6553 8.89886 17.3654C8.86747 17.3774 8.83997 17.3874 8.81275 17.3984C5.76663 18.6354 2.28204 17.009 1.27663 13.8808C0.482041 11.4089 1.43968 8.73625 3.62996 7.33778C4.66663 6.67583 5.80566 6.38389 7.03372 6.4607C9.21289 6.59681 11.0941 7.94153 11.9336 9.95612C12.2258 10.6572 12.3644 11.3893 12.365 12.1483C12.3666 14.5556 14.1432 16.6379 16.5214 17.0207C19.0549 17.4285 21.4667 15.8571 22.1192 13.3735C22.6875 11.2103 21.7044 8.89223 19.7465 7.81167C18.4097 7.07389 17.0158 6.97597 15.5785 7.49028C15.5572 7.49792 15.5367 7.50722 15.5087 7.51861L15.509 7.51875Z" fill="#32675B"/>
<path d="M15.3425 9.32421C15.4036 9.34004 15.4497 9.3474 15.4926 9.36379C15.7519 9.46268 16.0098 9.56518 16.2697 9.66226C16.3041 9.67518 16.3509 9.67532 16.3857 9.66323C16.477 9.63143 16.5851 9.60976 16.6486 9.54601C16.71 9.48435 16.7227 9.37504 16.7587 9.2874C16.829 9.11629 16.8994 8.94518 16.9725 8.77518C16.9925 8.72879 17.0157 8.68045 17.0495 8.64448C17.0765 8.61587 17.1218 8.58948 17.1594 8.58865C17.4139 8.58393 17.6686 8.58726 17.9232 8.58545C17.9794 8.58504 18.0169 8.61143 18.0422 8.65504C18.0862 8.73087 18.1309 8.80712 18.1664 8.88726C18.2559 9.09046 18.3391 9.29643 18.4289 9.49948C18.4419 9.52907 18.4723 9.55851 18.5021 9.57184C18.5925 9.61268 18.6866 9.67421 18.7789 9.67323C18.8683 9.6724 18.9564 9.60254 19.0461 9.56559C19.2386 9.48657 19.4321 9.40976 19.6248 9.33129C19.7243 9.29087 19.8033 9.31032 19.8802 9.39018C20.0344 9.55004 20.1959 9.70282 20.3568 9.85601C20.4058 9.90268 20.4282 9.95379 20.4064 10.0173C20.3547 10.1681 20.3034 10.3192 20.2455 10.4675C20.1926 10.6032 20.1286 10.7346 20.075 10.87C20.0622 10.9021 20.0609 10.9467 20.0725 10.9791C20.1043 11.0681 20.1259 11.1742 20.189 11.2348C20.2518 11.295 20.3602 11.3073 20.4482 11.3423C20.6393 11.4184 20.8298 11.4962 21.0211 11.5723C21.1322 11.6164 21.1837 11.6871 21.1766 11.8162C21.1651 12.0285 21.17 12.242 21.1753 12.4548C21.1773 12.5387 21.1459 12.5934 21.0746 12.6269C20.9218 12.6984 20.7687 12.7695 20.6137 12.8364C20.4907 12.8896 20.3637 12.9338 20.2407 12.9871C20.2105 13.0002 20.1796 13.0284 20.1655 13.0575C20.1246 13.1428 20.0632 13.2324 20.0641 13.3196C20.0651 13.4066 20.1329 13.4923 20.1701 13.5791C20.2504 13.766 20.3297 13.9535 20.4096 14.1406C20.4558 14.2488 20.4387 14.3334 20.3443 14.4164C20.1865 14.5555 20.0393 14.7069 19.8918 14.857C19.8269 14.923 19.7576 14.9442 19.6726 14.912C19.3982 14.8077 19.1233 14.7042 18.8502 14.5964C18.803 14.5778 18.7661 14.5839 18.7191 14.5949C18.5175 14.6424 18.4101 14.7645 18.3521 14.9648C18.2958 15.1588 18.199 15.3413 18.12 15.5287C18.0759 15.6328 18.0076 15.6824 17.8843 15.6763C17.665 15.6653 17.4446 15.6696 17.2248 15.675C17.1411 15.6771 17.0862 15.6459 17.0512 15.5759C16.9872 15.4477 16.9229 15.3194 16.8646 15.1885C16.8014 15.047 16.7469 14.9017 16.6839 14.7602C16.6707 14.7306 16.6407 14.7012 16.6111 14.6874C16.5232 14.6466 16.4312 14.5848 16.3414 14.5856C16.2519 14.5864 16.1634 14.6544 16.0739 14.6909C15.8812 14.7695 15.6876 14.846 15.4952 14.9252C15.3907 14.9682 15.3087 14.9495 15.2279 14.8648C15.0779 14.7074 14.9198 14.5575 14.7615 14.4084C14.7034 14.3538 14.6823 14.2955 14.7093 14.2224C14.7765 14.0403 14.8441 13.8582 14.915 13.6775C14.9547 13.5764 15.0033 13.4788 15.0429 13.3775C15.0533 13.351 15.045 13.3171 15.0451 13.2866C15.0451 13.2844 15.0437 13.2821 15.0429 13.28C15.0052 13.1931 14.9873 13.0856 14.9243 13.025C14.8615 12.9648 14.7529 12.9528 14.6652 12.9177C14.472 12.8403 14.2794 12.7616 14.0866 12.6834C13.9789 12.6396 13.9277 12.5694 13.9341 12.4435C13.945 12.2334 13.9405 12.0223 13.9354 11.8118C13.9332 11.7231 13.9654 11.6637 14.043 11.6291C14.252 11.5359 14.4566 11.4282 14.6732 11.3577C14.864 11.2955 14.9868 11.1946 15.0368 10.9992C15.0491 10.951 15.0532 10.9149 15.0322 10.8691C14.9311 10.6484 14.8336 10.4259 14.735 10.2039C14.7265 10.1849 14.7211 10.1646 14.7126 10.1456C14.6577 10.0225 14.6691 9.92421 14.7822 9.8281C14.9405 9.69351 15.0814 9.53851 15.2323 9.39504C15.2655 9.36351 15.3102 9.34393 15.3425 9.32337V9.32421ZM16.3139 12.1348C16.3157 12.8024 16.8777 13.3503 17.5589 13.3484C18.2451 13.3464 18.7984 12.7985 18.7971 12.1223C18.7957 11.455 18.2327 10.9089 17.5498 10.9123C16.8673 10.9156 16.312 11.4649 16.3139 12.1346V12.1348Z" fill="#32675B"/>
<path d="M3.65489 14.2937C3.67739 14.2171 3.691 14.1508 3.71586 14.0892C3.81016 13.8554 3.90697 13.6225 4.006 13.3907C4.02391 13.3486 4.01753 13.3155 4.00725 13.2732C3.95905 13.0739 3.83683 12.9685 3.63766 12.9158C3.4578 12.8683 3.28766 12.7833 3.11419 12.7129C3.06947 12.6947 3.02752 12.6692 2.98488 12.646C2.92669 12.6143 2.90183 12.5676 2.90266 12.4986C2.90586 12.2649 2.90641 12.031 2.90238 11.7972C2.90113 11.7222 2.92863 11.6711 2.99183 11.6396C3.1035 11.5839 3.2153 11.5276 3.33002 11.4789C3.49822 11.4075 3.66989 11.3443 3.83822 11.2732C3.86822 11.2605 3.8985 11.2311 3.91266 11.2018C3.95391 11.1167 4.01614 11.0271 4.01516 10.94C4.01405 10.8532 3.94503 10.7678 3.90794 10.6808C3.82627 10.4894 3.74586 10.2975 3.6653 10.1055C3.62419 10.0076 3.63877 9.92971 3.72405 9.85318C3.88586 9.70804 4.03891 9.5529 4.19197 9.39832C4.25322 9.33651 4.31961 9.31651 4.39933 9.34623C4.65058 9.43985 4.90405 9.52873 5.15114 9.63248C5.25322 9.6754 5.33503 9.67276 5.43822 9.63498C5.57322 9.58554 5.65058 9.5104 5.6967 9.37165C5.76572 9.16373 5.85989 8.96401 5.94475 8.76137C5.95892 8.72748 5.97975 8.69623 5.99822 8.66415C6.02975 8.60957 6.07392 8.58429 6.14045 8.58498C6.3835 8.5879 6.62656 8.58804 6.86961 8.58498C6.93545 8.58415 6.98281 8.60651 7.01295 8.66193C7.06156 8.75123 7.1117 8.84012 7.15281 8.93304C7.23517 9.11915 7.31003 9.30873 7.39239 9.49485C7.40642 9.52651 7.43989 9.55193 7.46948 9.57332C7.49309 9.5904 7.52684 9.59304 7.55198 9.60873C7.68323 9.69054 7.80323 9.6686 7.93892 9.60249C8.14837 9.5004 8.36976 9.42276 8.58559 9.33346C8.6874 9.29137 8.76809 9.30915 8.84698 9.39179C8.9924 9.54401 9.14323 9.69151 9.29962 9.83235C9.37754 9.90249 9.39545 9.97624 9.36059 10.0669C9.27781 10.2828 9.20462 10.5037 9.10365 10.7108C9.02948 10.863 9.01573 10.9937 9.10004 11.1436C9.13837 11.2118 9.17406 11.2587 9.25101 11.2858C9.46906 11.3626 9.6842 11.4482 9.8992 11.5332C9.95698 11.556 10.0113 11.588 10.0661 11.6178C10.1199 11.6469 10.142 11.6918 10.1413 11.7547C10.1389 11.9908 10.1381 12.2269 10.1417 12.463C10.1428 12.5379 10.115 12.5893 10.051 12.62C9.90504 12.6897 9.75893 12.7594 9.61045 12.8236C9.4767 12.8814 9.33906 12.9299 9.20517 12.9875C9.17517 13.0004 9.14462 13.0293 9.13045 13.0586C9.08948 13.1439 9.02767 13.2336 9.02892 13.3208C9.03017 13.4076 9.09878 13.4932 9.13615 13.58C9.21573 13.7647 9.2942 13.95 9.37337 14.135C9.42031 14.2447 9.4067 14.3319 9.30948 14.4172C9.15142 14.556 9.00378 14.7069 8.85656 14.8575C8.79142 14.9242 8.72267 14.9437 8.63753 14.9126C8.45281 14.8454 8.26795 14.7787 8.08406 14.7093C7.991 14.6742 7.90142 14.63 7.80781 14.5968C7.77462 14.585 7.73128 14.5836 7.69795 14.5942C7.621 14.6186 7.54559 14.6496 7.47323 14.6855C7.44406 14.7 7.41475 14.73 7.40239 14.7599C7.31323 14.9757 7.22892 15.1936 7.1417 15.4104C7.12364 15.4554 7.09892 15.4976 7.07892 15.5419C7.03545 15.6385 6.96961 15.6815 6.856 15.6765C6.6342 15.6667 6.41156 15.6701 6.18947 15.6754C6.10572 15.6774 6.05045 15.6465 6.01614 15.576C5.94128 15.4222 5.86697 15.2681 5.7967 15.1121C5.74447 14.9961 5.70156 14.876 5.64892 14.7603C5.63545 14.7307 5.60531 14.7015 5.57558 14.6878C5.48753 14.6471 5.39558 14.5854 5.30572 14.5864C5.21628 14.5872 5.12781 14.6551 5.03822 14.6917C4.84336 14.7711 4.6478 14.849 4.45294 14.9282C4.3535 14.9686 4.27419 14.9496 4.19725 14.8699C4.03975 14.7068 3.8735 14.5522 3.71336 14.3915C3.68641 14.3644 3.67225 14.3246 3.65405 14.2939L3.65489 14.2937ZM6.52947 10.9122C5.85086 10.9051 5.286 11.4514 5.27947 12.121C5.27294 12.7879 5.82878 13.3418 6.51114 13.3483C7.19225 13.3549 7.75767 12.811 7.7642 12.1429C7.77087 11.4705 7.21795 10.9194 6.52947 10.9122Z" fill="#32675B"/>
</svg>
