<svg width="24" height="24" viewBox="0 0 24 24" fill="none" xmlns="http://www.w3.org/2000/svg">
<g clip-path="url(#clip0_302_27767)">
<path d="M14.3304 17.4943V20.8117C14.8488 20.8117 15.3533 20.8117 15.8589 20.8117C16.037 20.8117 16.2546 20.7519 16.3826 20.833C16.5789 20.9567 16.837 21.1797 16.8381 21.3599C16.8381 21.5295 16.564 21.7909 16.3634 21.8474C16.0669 21.9317 15.7298 21.873 15.4098 21.873C12.9746 21.873 10.5405 21.873 8.10531 21.873C7.98051 21.873 7.85677 21.873 7.73197 21.873C7.37997 21.8698 7.13891 21.7237 7.13997 21.3439C7.13997 20.961 7.40024 20.8213 7.73944 20.8159C8.37304 20.8063 9.00771 20.8127 9.66691 20.8127V17.4943C9.46851 17.4943 9.28077 17.4943 9.09304 17.4943C7.01411 17.4943 4.93411 17.4965 2.85517 17.4943C1.66157 17.4922 0.955439 16.801 0.954372 15.6181C0.950105 11.7439 0.950105 7.86875 0.954372 3.99462C0.955439 2.82982 1.65197 2.13222 2.80717 2.13222C8.93837 2.13008 15.0706 2.13008 21.2018 2.13222C22.3293 2.13222 23.0461 2.82982 23.0482 3.94875C23.0546 7.85915 23.0546 11.7685 23.0482 15.6789C23.0461 16.7861 22.3144 17.4922 21.1933 17.4943C19.1144 17.4975 17.0344 17.4943 14.9554 17.4943C14.7634 17.4943 14.5714 17.4943 14.3314 17.4943H14.3304ZM11.9805 3.21488C8.95971 3.21488 5.93784 3.21382 2.91704 3.21488C2.24077 3.21488 2.03384 3.42395 2.03277 4.10875C2.03064 7.91142 2.03064 11.7151 2.03277 15.5178C2.03277 16.1983 2.24397 16.4053 2.92664 16.4053C8.96931 16.4063 15.0109 16.4063 21.0536 16.4053C21.7586 16.4053 21.9666 16.1951 21.9666 15.4805C21.9688 11.6949 21.9688 7.90928 21.9666 4.12475C21.9666 3.41221 21.7618 3.21488 21.0429 3.21488C18.0221 3.21382 15.0002 3.21488 11.9794 3.21488H11.9805ZM10.7528 20.7711H13.2488V17.5327H10.7528V20.7711Z" fill="#32675B"/>
<path d="M17.9547 9.8485C17.3083 9.0133 16.6545 8.2005 16.0475 7.35357C15.9355 7.19784 15.9259 6.85437 16.0251 6.69544C16.1062 6.5653 16.4187 6.55037 16.631 6.54397C16.7206 6.54184 16.8283 6.68264 16.903 6.77757C17.5942 7.65437 18.2779 8.5365 18.9681 9.4133C19.1995 9.7077 19.1974 9.98184 18.9585 10.2762C18.2673 11.1306 17.5857 11.9914 16.8998 12.8501C16.6875 13.1157 16.423 13.2533 16.1211 13.0282C15.7969 12.7872 15.8481 12.4949 16.0849 12.2005C16.7057 11.4282 17.319 10.6496 17.9558 9.8485H17.9547Z" fill="#32675B"/>
<path d="M6.05918 9.77283C6.71624 10.6176 7.33704 11.4155 7.95784 12.2144C8.17224 12.4896 8.21278 12.783 7.92478 13.0134C7.63464 13.2459 7.35944 13.1339 7.13651 12.8672C7.12478 12.8534 7.11304 12.8406 7.10238 12.8267C6.41544 11.9435 5.72851 11.0592 5.04051 10.1771C4.82504 9.90083 4.82291 9.63629 5.04691 9.35789C5.73704 8.50029 6.42078 7.63629 7.10664 6.77442C7.33704 6.48429 7.62504 6.35523 7.93011 6.61229C8.23944 6.87363 8.13064 7.17016 7.90131 7.45283C7.28798 8.21229 6.68638 8.98136 6.05811 9.77283H6.05918Z" fill="#32675B"/>
<path d="M10.47 12.7233C9.87589 12.7361 9.67109 12.3254 9.94202 11.855C10.5959 10.7169 11.2679 9.58939 11.9314 8.45766C12.1735 8.04486 12.4167 7.63206 12.6535 7.21606C12.8348 6.89713 13.1143 6.79793 13.4172 6.96859C13.7383 7.14886 13.7351 7.44966 13.558 7.75259C12.6439 9.31419 11.734 10.8779 10.8082 12.4321C10.7207 12.5793 10.5362 12.6689 10.47 12.7233Z" fill="#32675B"/>
</g>
<defs>
<clipPath id="clip0_302_27767">
<rect width="24" height="24" fill="white"/>
</clipPath>
</defs>
</svg>
