<svg width="25" height="24" viewBox="0 0 25 24" fill="none" xmlns="http://www.w3.org/2000/svg">
<path d="M23.8118 6.47944C23.6426 6.91292 23.3163 7.05801 22.8654 7.05042C21.8708 7.03391 20.8757 7.04641 19.8806 7.04507C19.2886 7.04417 19.0217 6.78614 19.0007 6.20087C18.9859 5.7857 18.6636 5.46516 18.2074 5.4165C18.119 5.40713 18.0292 5.40936 17.9404 5.40936C14.2502 5.40936 10.5605 5.40757 6.87036 5.41293C6.68152 5.41293 6.48063 5.43659 6.30697 5.50445C5.98376 5.63123 5.80787 5.87945 5.80831 6.24507C5.81054 10.0834 5.80921 13.9214 5.81054 17.7598C5.81054 18.2124 6.12617 18.5423 6.59804 18.5928C6.65697 18.599 6.71679 18.5995 6.77617 18.5995C10.5257 18.5995 14.2752 18.5999 18.0243 18.5981C18.1342 18.5981 18.2475 18.5874 18.3538 18.5602C18.7877 18.4477 19.0007 18.17 19.0007 17.7254C19.0011 14.637 19.0007 11.5486 19.0029 8.46024C19.0029 8.3281 19.0109 8.19104 19.0462 8.06515C19.1301 7.76515 19.4212 7.5589 19.731 7.55756C20.04 7.55667 20.3337 7.76292 20.419 8.06247C20.4547 8.18837 20.4641 8.32586 20.4641 8.45756C20.4663 11.1968 20.4658 13.9366 20.4658 16.6758C20.4658 16.7633 20.4658 16.8504 20.4658 16.9624C20.5975 16.9624 20.7065 16.9624 20.8154 16.9624C21.4984 16.9624 22.1819 16.9758 22.8645 16.958C23.3154 16.9464 23.6422 17.0955 23.8114 17.5285V17.8848C23.6252 18.3048 23.3002 18.4446 22.8493 18.4303C22.0855 18.4062 21.3203 18.4267 20.5556 18.4205C20.4225 18.4196 20.3645 18.462 20.3163 18.587C20.0757 19.2093 19.6292 19.637 19.0132 19.8776C18.8592 19.9379 18.8208 20.0138 18.8225 20.1669C18.8301 20.8571 18.8284 21.5477 18.8243 22.2379C18.8221 22.5981 18.6252 22.8669 18.3101 22.9624C17.8172 23.1115 17.3757 22.7629 17.3672 22.2013C17.3578 21.5705 17.3654 20.9392 17.3641 20.3084C17.3641 20.2307 17.3574 20.1526 17.3538 20.0776H15.9788C15.9788 20.1709 15.9788 20.2508 15.9788 20.3307C15.9788 20.9615 15.977 21.5928 15.9788 22.2236C15.9797 22.4504 15.915 22.6499 15.7431 22.8017C15.5252 22.9941 15.2703 23.0535 14.9976 22.9477C14.719 22.8396 14.54 22.6312 14.5337 22.3263C14.5199 21.666 14.5244 21.0053 14.5212 20.3446C14.5212 20.258 14.5212 20.1718 14.5212 20.0803H13.1315C13.1315 20.7633 13.1328 21.4303 13.1302 22.0972C13.1297 22.2227 13.1302 22.3526 13.0994 22.4727C13.0145 22.8039 12.6694 23.0329 12.3382 22.9941C11.973 22.9513 11.6962 22.6834 11.6882 22.3191C11.6735 21.6513 11.6811 20.983 11.6793 20.3151C11.6793 20.2365 11.6793 20.1575 11.6793 20.0834H10.2895C10.2895 20.3544 10.2904 20.6062 10.2895 20.8584C10.2878 21.341 10.2994 21.824 10.2784 22.3057C10.2605 22.7138 9.93508 23.0057 9.55116 22.9999C9.15428 22.9937 8.84402 22.6852 8.83598 22.2678C8.8266 21.7705 8.83286 21.2731 8.83241 20.7758C8.83241 20.5477 8.83241 20.3191 8.83241 20.0789H7.4467C7.4467 20.1731 7.4467 20.253 7.4467 20.3334C7.4467 20.9347 7.45072 21.5361 7.44357 22.1374C7.44179 22.2758 7.42572 22.4222 7.37795 22.5508C7.26233 22.8602 6.92215 23.0432 6.60786 22.9888C6.24492 22.9263 5.99358 22.6521 5.98912 22.2821C5.98063 21.5767 5.98153 20.8714 5.98912 20.1664C5.9909 20.0115 5.94894 19.9379 5.79626 19.8781C5.19626 19.6428 4.75207 19.2321 4.51278 18.6267C4.45117 18.4709 4.37796 18.4182 4.20877 18.42C3.39225 18.4298 2.57529 18.4267 1.75878 18.4231C1.40565 18.4214 1.1436 18.2348 1.04181 17.9294C0.876189 17.4325 1.22797 16.9732 1.79672 16.966C2.56145 16.9566 3.32618 16.9638 4.09091 16.9629C4.16993 16.9629 4.2485 16.9562 4.32841 16.9526V7.04641C4.23064 7.04641 4.14939 7.04641 4.06859 7.04641C3.34091 7.04641 2.61324 7.04908 1.88601 7.04373C1.74672 7.04283 1.60119 7.03078 1.47038 6.98703C1.15342 6.88167 0.957439 6.53525 1.00789 6.20935C1.0628 5.85534 1.34851 5.59284 1.71458 5.58971C2.561 5.58257 3.40743 5.58525 4.25341 5.58793C4.36635 5.58793 4.43823 5.57454 4.48644 5.44596C4.73064 4.79775 5.1918 4.35936 5.83688 4.11695C5.95474 4.07276 5.98912 4.01115 5.98822 3.88927C5.98242 3.25088 6.00474 2.6116 5.97885 1.9741C5.95965 1.50089 6.1159 1.17009 6.56858 1.00045H6.83599C7.29715 1.15491 7.46813 1.48259 7.45116 1.95759C7.43107 2.52098 7.44625 3.08571 7.44625 3.64999C7.44625 3.74329 7.44625 3.83615 7.44625 3.93436H8.83196C8.83196 3.84419 8.83196 3.76472 8.83196 3.68481C8.83196 3.11338 8.85071 2.54062 8.82616 1.97009C8.80562 1.49687 8.96321 1.16518 9.41991 1H9.68732C10.1507 1.15625 10.3114 1.48839 10.294 1.96205C10.2726 2.54017 10.2887 3.12008 10.2895 3.6991C10.2895 3.77678 10.2976 3.85445 10.302 3.93258H11.6788C11.6788 3.84017 11.6788 3.76026 11.6788 3.68079C11.6788 3.10937 11.698 2.5366 11.673 1.96607C11.652 1.49107 11.8114 1.16071 12.2717 1H12.5391C13.0007 1.16027 13.1654 1.49286 13.1364 1.96651C13.1136 2.33616 13.1319 2.70848 13.1319 3.0799C13.1319 3.36026 13.1319 3.64061 13.1319 3.93124H14.5217C14.5217 3.26517 14.5382 2.61294 14.5163 1.9616C14.5002 1.48705 14.661 1.1567 15.1235 1H15.3909C15.8485 1.16518 16.011 1.49732 15.9828 1.97053C15.9583 2.37767 15.9779 2.78705 15.9779 3.19553C15.9779 3.43838 15.9779 3.68124 15.9779 3.9299H17.365C17.365 3.26204 17.3797 2.60892 17.3601 1.95714C17.3458 1.48259 17.5114 1.15268 17.9757 1H18.1984C18.7181 1.20714 18.8261 1.3683 18.8261 1.93616C18.8261 2.58124 18.8306 3.22633 18.823 3.87142C18.8212 4.01338 18.8676 4.07365 18.9998 4.12543C19.6234 4.36874 20.077 4.79597 20.3181 5.42677C20.3672 5.55534 20.431 5.58927 20.56 5.58838C21.3239 5.58302 22.0882 5.60311 22.8511 5.579C23.3011 5.56471 23.6257 5.70534 23.8123 6.12319V6.47944H23.8118Z" fill="#32675B"/>
<path d="M23.8119 9.33065C23.6387 9.76011 23.3128 9.91547 22.8623 9.89181C22.4338 9.86949 22.0016 9.90074 21.5739 9.86859C21.1106 9.83377 20.8239 9.35788 20.9806 8.92128C21.0851 8.63065 21.2981 8.44851 21.6106 8.43958C22.1213 8.4253 22.6333 8.42753 23.1445 8.43958C23.4927 8.44762 23.6717 8.69315 23.8119 8.9744V9.33065Z" fill="#32675B"/>
<path d="M23.8118 15.0334C23.6301 15.4557 23.306 15.6097 22.8551 15.5816C22.4712 15.5575 22.0845 15.5816 21.6993 15.5749C21.2578 15.5677 20.9524 15.2784 20.9417 14.8686C20.931 14.4588 21.2229 14.1427 21.6622 14.1271C22.1359 14.1106 22.6109 14.12 23.085 14.124C23.4618 14.1271 23.6694 14.3615 23.8118 14.6767V15.0329V15.0334Z" fill="#32675B"/>
<path d="M23.8134 12.1819C23.6358 12.6078 23.3121 12.7618 22.8603 12.7346C22.4465 12.7096 22.0304 12.7363 21.6157 12.7207C21.2634 12.7073 20.9992 12.4511 20.9532 12.114C20.9041 11.756 21.088 11.4408 21.4219 11.3234C21.4974 11.2971 21.5804 11.2823 21.6603 11.2814C22.1344 11.2774 22.609 11.2792 23.0831 11.2792C23.4625 11.2792 23.6666 11.5145 23.8134 11.8256V12.1819Z" fill="#32675B"/>
<path d="M6.91406 15.0325C6.9279 14.9803 6.94665 14.862 6.98906 14.7531C7.76808 12.75 8.54888 10.7473 9.33146 8.74552C9.47566 8.37677 9.73459 8.17409 10.0556 8.18927C10.4145 8.20624 10.6355 8.40891 10.7636 8.73793C11.5453 10.7482 12.3323 12.7562 13.1136 14.7665C13.2823 15.2009 13.1181 15.6125 12.7283 15.7696C12.3422 15.9258 11.9395 15.7375 11.7587 15.3071C11.6493 15.0477 11.5618 14.7785 11.4453 14.5227C11.4149 14.4562 11.3127 14.3817 11.2426 14.3808C10.4484 14.3709 9.65378 14.3781 8.85914 14.3709C8.72745 14.3696 8.67834 14.4267 8.63727 14.5352C8.52432 14.833 8.41629 15.1343 8.28147 15.4223C8.1337 15.7388 7.7962 15.8799 7.46049 15.7964C7.13504 15.7156 6.91496 15.4343 6.91406 15.0325ZM10.0475 10.9268C9.77744 11.621 9.53057 12.254 9.27968 12.8991H10.8185C10.5632 12.2455 10.3172 11.6169 10.0475 10.9268Z" fill="#32675B"/>
<path d="M16.2601 14.3678C16.3793 14.3678 16.4833 14.3611 16.5864 14.3692C16.9551 14.3973 17.2418 14.6866 17.2623 15.0459C17.2833 15.4165 17.0467 15.7263 16.6815 15.804C16.6239 15.8165 16.5641 15.8267 16.5056 15.8267C15.8453 15.8281 15.1846 15.8334 14.5244 15.8254C14.1636 15.8209 13.8869 15.6125 13.7971 15.308C13.7101 15.0125 13.8052 14.6848 14.0614 14.5183C14.1855 14.4375 14.3453 14.4053 14.4931 14.3687C14.5757 14.3486 14.6672 14.3651 14.7685 14.3651V9.64061C14.6543 9.64061 14.5516 9.64686 14.4502 9.63972C14.0703 9.61293 13.786 9.32008 13.7694 8.94508C13.7534 8.57677 13.9985 8.26919 14.3677 8.20133C14.4543 8.18526 14.5444 8.18213 14.6333 8.18169C15.227 8.1799 15.8203 8.17945 16.4141 8.18169C16.9333 8.18347 17.265 8.47231 17.2636 8.91695C17.2618 9.35668 16.9418 9.63659 16.4324 9.64374C16.3806 9.64463 16.3293 9.64374 16.2605 9.64374V14.3678H16.2601Z" fill="#32675B"/>
<path d="M2.43444 8.43364C2.67908 8.43364 2.92372 8.42561 3.16792 8.43543C3.56345 8.45105 3.85229 8.74302 3.86836 9.12828C3.88443 9.52382 3.61077 9.85462 3.20363 9.87248C2.69381 9.8948 2.18131 9.8948 1.6715 9.87248C1.27016 9.85507 0.98623 9.51667 1.00052 9.13051C1.01525 8.74257 1.31703 8.44704 1.72328 8.43364C1.95989 8.42561 2.19739 8.4323 2.43444 8.4323V8.4332V8.43364Z" fill="#32675B"/>
<path d="M2.43754 15.5741C2.1929 15.5741 1.94825 15.5822 1.70406 15.5723C1.30406 15.5563 1.00406 15.246 1.00004 14.8576C0.996025 14.4786 1.27549 14.1522 1.6679 14.1353C2.17772 14.1134 2.69021 14.113 3.20003 14.1348C3.60807 14.1522 3.88217 14.4813 3.86789 14.8764C3.8536 15.2701 3.55852 15.5603 3.14825 15.5737C2.91164 15.5817 2.67414 15.575 2.43709 15.575V15.5741H2.43754Z" fill="#32675B"/>
<path d="M2.44249 12.7252C2.19071 12.7252 1.93847 12.7359 1.68714 12.7225C1.28758 12.7011 0.994281 12.3819 1.00008 11.9935C1.00589 11.6127 1.29428 11.2979 1.6849 11.2863C2.18803 11.2712 2.69249 11.2707 3.19561 11.2872C3.58847 11.3002 3.86838 11.6154 3.86882 12.0029C3.86927 12.3904 3.58981 12.6988 3.1974 12.7212C2.94651 12.7354 2.69383 12.7238 2.44204 12.7238V12.7247L2.44249 12.7252Z" fill="#32675B"/>
<path d="M10.0452 10.9268C10.3148 11.6169 10.5608 12.2455 10.8162 12.8991H9.27734C9.52868 12.254 9.77511 11.621 10.0452 10.9268Z" fill="white"/>
</svg>
