<svg width="24" height="24" viewBox="0 0 24 24" fill="none" xmlns="http://www.w3.org/2000/svg">
<path d="M11.7782 23C11.2884 22.8743 10.8842 22.6371 10.6406 22.1688C10.239 21.3962 10.5768 20.4178 11.3831 20.0812C11.5303 20.0197 11.5686 19.9474 11.5668 19.7993C11.5595 19.1777 11.5638 18.5558 11.5638 17.9161C10.2562 17.8085 9.11423 17.3277 8.1182 16.4888C7.64386 16.9623 7.18028 17.4194 6.7266 17.886C6.68571 17.9282 6.68184 18.0435 6.70637 18.1072C7.04685 18.9987 6.58973 19.9181 5.6729 20.172C4.85163 20.3993 3.98904 19.8608 3.80093 19.003C3.62015 18.1796 4.20856 17.3045 5.04575 17.2063C5.31865 17.1745 5.60532 17.2632 5.88596 17.2898C5.96043 17.2967 6.06632 17.3088 6.1085 17.2675C6.57509 16.8138 7.03221 16.3502 7.50569 15.8759C6.66677 14.8798 6.18598 13.7375 6.07837 12.4298C5.40302 12.4298 4.74531 12.4259 4.08804 12.4367C4.03294 12.4375 3.95761 12.5279 3.92877 12.5929C3.64296 13.2468 3.01238 13.5963 2.27074 13.5024C1.65435 13.4245 1.12061 12.8813 1.0186 12.2279C0.899801 11.4665 1.35994 10.7567 2.11664 10.5337C2.82772 10.3241 3.62187 10.6913 3.91027 11.3804C3.9744 11.5336 4.0493 11.5758 4.2077 11.5732C4.80901 11.5629 5.41033 11.5681 6.01208 11.5668C6.02585 11.5668 6.03963 11.5599 6.07837 11.5491C6.18684 10.2694 6.66075 9.12492 7.50225 8.12889C7.0236 7.64637 6.55744 7.17332 6.08353 6.70802C6.05125 6.67617 5.95182 6.68779 5.895 6.70931C4.9898 7.05323 4.07039 6.5931 3.81901 5.66637C3.59691 4.84811 4.15432 3.97002 5.00185 3.80172C5.85712 3.63213 6.72187 4.24593 6.79246 5.10336C6.81398 5.36463 6.73005 5.63409 6.70336 5.90096C6.69604 5.97413 6.69174 6.07744 6.73349 6.12091C7.13595 6.53843 7.54917 6.94562 7.95765 7.35712C8.00284 7.40275 8.03728 7.4587 8.09151 7.52972C9.10777 6.68005 10.2446 6.18935 11.5475 6.08734C11.5535 6.01761 11.5621 5.96294 11.5625 5.90827C11.5634 5.32805 11.56 4.74825 11.5656 4.16802C11.5668 4.04535 11.5354 3.98122 11.4128 3.92999C10.7266 3.64548 10.3543 2.94171 10.4959 2.22203C10.6307 1.5385 11.2569 1.0181 11.9663 1.00045C12.6726 0.982803 13.311 1.48469 13.4814 2.19147C13.6484 2.88404 13.2701 3.64289 12.6012 3.91751C12.4523 3.97863 12.4174 4.05396 12.4191 4.20074C12.4269 4.80206 12.423 5.4038 12.4238 6.00512C12.4238 6.0189 12.429 6.0331 12.4381 6.08045C13.7139 6.19193 14.8597 6.65895 15.8574 7.50433C15.9009 7.4686 15.9401 7.44106 15.9736 7.40748C16.3894 6.99254 16.8022 6.57545 17.2206 6.16309C17.3063 6.07873 17.3351 6.0133 17.2848 5.88718C16.949 5.04697 17.3747 4.12412 18.2106 3.85596C19.0728 3.57919 19.9535 4.063 20.1687 4.95572C20.3025 5.51184 20.1536 6.01459 19.7344 6.405C19.2841 6.82467 18.7439 6.94089 18.1637 6.72438C17.9872 6.65852 17.8973 6.69425 17.7802 6.81434C17.3553 7.24951 16.9215 7.67521 16.4773 8.11856C17.3188 9.11803 17.8 10.26 17.908 11.5685C18.5829 11.5685 19.2402 11.5707 19.8975 11.5642C19.9436 11.5638 20.0094 11.5104 20.0318 11.4648C20.3946 10.7287 20.897 10.4248 21.6502 10.4911C22.2145 10.5406 22.8322 11.0055 22.9635 11.726C22.9674 11.7463 22.982 11.7648 22.9915 11.7837V12.2133C22.982 12.2327 22.9669 12.2507 22.9635 12.271C22.8326 12.9911 22.2145 13.4564 21.6502 13.5059C20.897 13.5717 20.3946 13.2679 20.0318 12.5322C20.0094 12.4866 19.9436 12.4332 19.8975 12.4328C19.2402 12.4264 18.5829 12.4285 17.9063 12.4285C17.8026 13.7379 17.3175 14.8781 16.4841 15.8716C16.5306 15.9224 16.5625 15.9607 16.5978 15.9955C17.023 16.4208 17.4457 16.8491 17.8783 17.2666C17.9209 17.3075 18.0268 17.2954 18.1013 17.2881C18.3824 17.2614 18.6686 17.1728 18.9415 17.205C19.7787 17.3032 20.3667 18.1791 20.1855 19.0021C19.9965 19.8604 19.1348 20.398 18.3131 20.1707C17.3962 19.9168 16.9395 18.9974 17.2804 18.1055C17.305 18.0418 17.3007 17.9265 17.2598 17.8843C16.8065 17.4177 16.343 16.9606 15.8695 16.4884C14.8717 17.326 13.7302 17.8077 12.423 17.9153C12.423 18.5545 12.4273 19.1764 12.42 19.7984C12.4182 19.9465 12.4574 20.0188 12.6038 20.0799C13.4173 20.42 13.7522 21.4091 13.3359 22.1865C13.091 22.644 12.6899 22.8747 12.2082 22.9987H11.7786L11.7782 23ZM15.6095 15.5264C17.3089 13.8584 17.6777 10.8789 15.8686 8.74097C14.0449 6.58621 10.8708 6.31719 8.74793 8.10479C6.60307 9.91089 6.30133 13.0763 8.08678 15.2263C9.89116 17.3996 12.9326 17.5881 14.904 16.1346C14.904 16.1204 14.9079 16.1053 14.9036 16.0928C14.2102 14.1558 11.7597 13.4344 10.115 14.6823C10.0354 14.7425 9.95616 14.8075 9.86749 14.851C9.58986 14.9866 9.25412 14.8019 9.26789 14.4985C9.27435 14.3625 9.36646 14.1899 9.47536 14.1068C9.77925 13.8743 10.1124 13.6798 10.4318 13.4719C9.43921 12.4001 9.82359 11.1118 10.4654 10.5174C11.2393 9.80027 12.3791 9.75508 13.1552 10.3839C13.5628 10.7145 13.8249 11.1316 13.9106 11.6425C14.0238 12.3166 13.8357 12.9166 13.3588 13.4392C14.4034 13.8365 15.1438 14.5351 15.6104 15.5268L15.6095 15.5264ZM10.6926 11.9705C10.6754 12.6312 11.2014 13.1835 11.8634 13.1998C12.5185 13.2162 13.0699 12.6816 13.0828 12.0179C13.0958 11.3683 12.5758 10.8226 11.9215 10.7993C11.2673 10.7761 10.7099 11.3072 10.6926 11.9701V11.9705ZM11.99 3.19223C12.3606 3.19352 12.661 2.8948 12.6593 2.52548C12.6576 2.16564 12.3657 1.86821 12.0068 1.86046C11.6392 1.85271 11.3327 2.14971 11.3271 2.51903C11.3215 2.88834 11.6194 3.19094 11.9895 3.19223H11.99ZM3.1867 12.0114C3.1923 11.6395 2.89917 11.3378 2.52857 11.3339C2.16012 11.33 1.8558 11.6305 1.85537 11.9985C1.85494 12.3583 2.14333 12.6541 2.50532 12.6644C2.87464 12.6751 3.18154 12.3807 3.18713 12.011L3.1867 12.0114ZM20.7988 11.9895C20.7941 12.3614 21.0881 12.6627 21.4587 12.6652C21.8271 12.6683 22.1306 12.367 22.1306 11.9989C22.1306 11.6391 21.8405 11.3438 21.4789 11.3343C21.1096 11.3249 20.8036 11.6193 20.7988 11.9895ZM12.0029 20.8069C11.631 20.8022 11.3297 21.0966 11.3271 21.4672C11.3245 21.8357 11.6254 22.1391 11.9934 22.1391C12.3533 22.1391 12.6481 21.8494 12.658 21.4874C12.6679 21.1181 12.3726 20.8121 12.0029 20.8074V20.8069ZM5.30445 19.3598C5.67333 19.3559 5.97463 19.0477 5.96473 18.6836C5.95526 18.3263 5.65482 18.0311 5.29928 18.0285C4.93341 18.0259 4.63211 18.3298 4.6334 18.6995C4.63469 19.074 4.92868 19.3637 5.30401 19.3598H5.30445ZM19.3521 18.7047C19.356 18.3345 19.0581 18.0298 18.6914 18.0289C18.3277 18.0276 18.0191 18.3367 18.0212 18.7004C18.0229 19.0589 18.3165 19.3542 18.6763 19.3602C19.0525 19.3667 19.3483 19.0796 19.3521 18.7051V18.7047ZM4.63383 5.30222C4.63383 5.67154 4.93685 5.97499 5.30186 5.97069C5.66601 5.96638 5.97162 5.65346 5.96473 5.29189C5.95742 4.93205 5.663 4.64193 5.30229 4.63935C4.92738 4.63677 4.63383 4.92774 4.63383 5.30222ZM18.6811 4.63935C18.3126 4.64323 18.0109 4.95228 18.0212 5.316C18.0311 5.67412 18.3298 5.96811 18.6867 5.97069C19.0521 5.97327 19.3534 5.66938 19.3521 5.29964C19.3508 4.92559 19.056 4.63548 18.6811 4.63935Z" fill="#32675B"/>
<path d="M19.3504 18.7045C19.3466 19.0794 19.0509 19.3661 18.6747 19.3597C18.3144 19.3536 18.0213 19.0584 18.0195 18.6998C18.0178 18.3361 18.326 18.0275 18.6897 18.0283C19.0565 18.0296 19.3539 18.3344 19.3504 18.7041V18.7045Z" fill="white"/>
<path d="M8.96827 15.6781C8.73884 15.6811 8.54558 15.49 8.543 15.2571C8.54041 15.0216 8.72464 14.8322 8.95923 14.8301C9.19338 14.8279 9.38321 15.0143 9.38493 15.248C9.38665 15.4805 9.19812 15.675 8.96784 15.6781H8.96827Z" fill="#32675B"/>
</svg>
