<svg width="25" height="22" viewBox="0 0 25 22" fill="none" xmlns="http://www.w3.org/2000/svg">
<path d="M24.9098 7.10106C24.6324 7.57288 24.3579 8.04665 24.0785 8.5175C23.6301 9.27163 23.044 9.43378 22.2762 9.02155C21.7663 8.74803 21.6891 8.78613 21.6657 9.33024C21.6256 10.2504 21.3159 10.5728 20.2619 10.7359C20.2619 10.8952 20.2619 11.0661 20.2619 11.238C20.2619 12.9563 20.2619 14.6736 20.2619 16.3919C20.2619 17.7312 19.8028 18.1815 18.442 18.1825C16.7882 18.1825 15.1344 18.1825 13.4806 18.1825H12.8788C12.9736 18.9405 13.0303 19.6614 13.1641 20.3677C13.2393 20.7643 13.5646 20.9841 13.9827 21.0095C14.2093 21.0232 14.4682 20.9548 14.6538 21.0447C14.8335 21.1316 15.0328 21.3661 15.0465 21.5487C15.0563 21.6826 14.7906 21.8516 14.6255 21.9756C14.562 22.0225 14.4369 21.9873 14.3392 21.9873C11.6969 21.9873 9.05349 21.9873 6.4111 21.9873C6.33002 21.9873 6.22354 22.0186 6.17274 21.9795C5.99984 21.8437 5.69701 21.6562 5.71851 21.538C5.75367 21.3446 5.9803 21.0818 6.16884 21.0408C6.59767 20.948 7.15057 21.1463 7.41139 20.6852C7.61556 20.3247 7.65854 19.8646 7.73571 19.4426C7.808 19.048 7.83046 18.6436 7.88126 18.1835C7.67905 18.1835 7.50517 18.1835 7.33129 18.1835C5.45085 18.1835 3.56943 18.1854 1.68898 18.1835C0.504057 18.1825 0 17.6784 0 16.5013C0 12.4171 0 8.33385 0 4.24962C0 3.0305 0.495265 2.53035 1.7007 2.52938C3.19236 2.5284 4.68402 2.52059 6.17567 2.53915C6.37788 2.54208 6.64749 2.62511 6.76472 2.76871C7.03335 3.09888 6.73639 3.49646 6.22549 3.49842C4.71723 3.50526 3.20994 3.50037 1.70168 3.50135C1.05207 3.50135 0.972947 3.5795 0.972947 4.22617C0.97197 7.56409 0.972947 10.903 0.972947 14.2409C0.972947 14.3835 0.985646 14.5251 0.993461 14.6941H19.2587V10.7193C19.1258 10.7076 19.0008 10.7037 18.8777 10.6842C18.1783 10.5747 17.8413 10.1352 17.8129 9.29898C17.7973 8.85256 17.6957 8.77538 17.3441 8.94243C16.2549 9.45918 15.8719 9.33805 15.2624 8.285C15.108 8.01832 14.9498 7.75555 14.8003 7.48594C14.3891 6.7445 14.5444 6.15058 15.2604 5.71197C15.7918 5.38668 15.8026 5.28313 15.2604 4.97933C14.686 4.65697 14.519 4.16366 14.6001 3.50233C13.4874 3.50233 12.4051 3.50233 11.3227 3.50233C11.1606 3.50233 10.9984 3.50037 10.8362 3.50233C10.5149 3.50526 10.2814 3.36752 10.2736 3.03441C10.2648 2.67493 10.4992 2.5284 10.846 2.52938C12.1589 2.53231 13.4728 2.52059 14.7857 2.53719C15.0846 2.5411 15.2467 2.44244 15.3942 2.18357C15.8456 1.3972 16.4317 1.24677 17.2278 1.67561C17.724 1.94327 17.7983 1.89931 17.8129 1.3298C17.8364 0.425234 18.2652 0.00616337 19.1747 0.00225595C19.5801 0.00030224 19.9855 -0.00165147 20.3909 0.00225595C21.1821 0.0120245 21.6139 0.430118 21.6637 1.2243C21.7086 1.94717 21.7223 1.95596 22.3338 1.63263C23.0245 1.26826 23.6321 1.42749 24.0365 2.09565C24.3374 2.59287 24.6197 3.10084 24.9098 3.60392V4.1871C24.6294 4.47918 24.3735 4.80252 24.0599 5.05259C23.7727 5.28215 23.7718 5.40719 24.0599 5.62796C24.3667 5.86338 24.6285 6.15546 24.9098 6.42312V7.10399V7.10106ZM23.972 3.95852C23.7581 3.58243 23.5451 3.26007 23.383 2.91328C23.1808 2.48054 22.9805 2.35061 22.5067 2.63879C21.7829 3.08032 20.8773 2.66028 20.7113 1.87684C20.6497 1.58671 20.6888 1.15201 20.5149 1.0387C20.2844 0.888263 19.8907 0.988879 19.5674 0.981064C19.5351 0.981064 19.5029 0.981064 19.4697 0.981064C18.8894 0.991809 18.7937 0.842351 18.7859 1.62774C18.7771 2.4864 17.9292 3.0393 17.1438 2.7394C16.6287 2.54273 16.2334 2.68274 15.9579 3.15945C15.9091 3.24346 15.87 3.33528 15.8094 3.40952C15.489 3.8032 15.5691 4.0396 16.0243 4.29455C16.7609 4.70776 16.8419 5.68462 16.2392 6.23849C16.0233 6.4368 15.6277 6.61947 15.6199 6.82168C15.6092 7.09813 15.8905 7.3863 16.0468 7.66861C16.0702 7.71159 16.1005 7.75066 16.1181 7.7956C16.289 8.24593 16.5137 8.30845 16.9533 8.04372C17.7182 7.58362 18.6599 8.04372 18.7839 8.87893C18.8653 9.43118 19.1828 9.7073 19.7364 9.7073C19.8819 9.7073 20.0304 9.69167 20.174 9.71023C20.5618 9.76005 20.7005 9.59008 20.6781 9.21302C20.6497 8.7285 20.8129 8.32115 21.2446 8.05349C21.7272 7.75457 22.1902 7.82588 22.6679 8.09256C22.7969 8.16485 23.0938 8.18536 23.1427 8.1121C23.4406 7.67838 23.6887 7.20949 23.9749 6.71715C23.3859 6.37818 22.8428 6.07438 22.8457 5.33002C22.8486 4.58761 23.4005 4.28967 23.9691 3.95754L23.972 3.95852ZM19.204 15.7394H0.982716C0.982716 15.926 0.982716 16.0842 0.982716 16.2415C0.980762 16.879 1.2927 17.1978 1.91854 17.1978C7.28538 17.1978 12.6512 17.1978 18.0181 17.1978C18.9253 17.1978 19.3381 16.7459 19.2567 15.8419C19.2558 15.8273 19.2431 15.8136 19.205 15.7394H19.204ZM8.56897 20.946H12.198C12.0749 20.0287 11.9557 19.1427 11.8356 18.2509H8.92747C8.8083 19.1506 8.69205 20.0248 8.56897 20.946Z" fill="#32675B"/>
<path d="M7.27129 9.78374C8.63303 9.78374 9.99574 9.78374 11.3575 9.78374C11.6779 9.78374 11.9133 9.91757 11.9211 10.2517C11.9289 10.5848 11.7013 10.7352 11.3829 10.7508C11.2696 10.7567 11.1562 10.7557 11.0429 10.7557C10.1999 10.7557 9.35688 10.7557 8.51288 10.7557C6.85906 10.7557 5.20525 10.7557 3.55143 10.7557C3.38927 10.7557 3.18902 10.8006 3.07473 10.7244C2.89889 10.6053 2.68985 10.4079 2.67226 10.2272C2.66054 10.0973 2.91648 9.87361 3.09426 9.81207C3.31308 9.73685 3.57488 9.78569 3.81811 9.78471C4.96983 9.78374 6.12056 9.78471 7.27227 9.78471V9.78667L7.27129 9.78374Z" fill="#32675B"/>
<path d="M6.08447 13.2201C5.16134 13.2201 4.23821 13.2161 3.31508 13.222C2.94779 13.2249 2.63519 13.1243 2.64887 12.7062C2.66157 12.3155 2.97123 12.2432 3.31606 12.2452C5.17795 12.251 7.04081 12.25 8.90367 12.2471C9.24752 12.2471 9.54155 12.3194 9.5396 12.7316C9.53765 13.138 9.24655 13.223 8.90269 13.222C7.96296 13.2191 7.0242 13.222 6.08447 13.222V13.2201Z" fill="#32675B"/>
<path d="M13.743 13.2201C13.1275 13.2201 12.5111 13.2142 11.8957 13.222C11.5323 13.2269 11.2119 13.1399 11.2149 12.7199C11.2178 12.3292 11.5206 12.2432 11.8684 12.2451C13.1324 12.252 14.3965 12.253 15.6605 12.2451C16.0083 12.2432 16.3121 12.3292 16.318 12.7179C16.3238 13.136 16.0054 13.2279 15.64 13.223C15.008 13.2142 14.376 13.221 13.7439 13.221L13.743 13.2201Z" fill="#32675B"/>
<path d="M3.80027 6.61946C4.15389 6.99067 4.46355 7.31987 4.77712 7.64614C5.00961 7.8884 5.09167 8.15898 4.82987 8.41199C4.56124 8.67183 4.29944 8.55559 4.07183 8.31528C3.67132 7.8923 3.27179 7.46835 2.86444 7.05123C2.5919 6.77185 2.55869 6.50224 2.84393 6.20821C3.26104 5.77937 3.67035 5.34174 4.08258 4.90704C4.31409 4.6638 4.57882 4.56416 4.83964 4.83182C5.09362 5.09264 4.99789 5.35932 4.76638 5.59865C4.45378 5.92296 4.14607 6.25314 3.79929 6.61946H3.80027Z" fill="#32675B"/>
<path d="M10.6783 6.61777C10.3355 6.25145 10.0317 5.91932 9.71809 5.59598C9.48462 5.35567 9.39182 5.09192 9.64384 4.8311C9.90369 4.56344 10.1704 4.66406 10.4009 4.90534C10.8141 5.33809 11.2234 5.77377 11.6386 6.20554C11.9189 6.49664 11.8916 6.77016 11.619 7.05052C11.2136 7.46763 10.8151 7.89256 10.4136 8.31457C10.187 8.55292 9.9242 8.67307 9.65557 8.41421C9.39475 8.16315 9.47192 7.8955 9.70636 7.65128C10.0199 7.32599 10.3257 6.99288 10.6783 6.61777Z" fill="#32675B"/>
<path d="M5.85938 8.09153C5.93362 7.9196 5.96097 7.82582 6.01079 7.74474C6.57541 6.82162 7.14003 5.89849 7.71051 4.97927C7.87267 4.71747 8.10028 4.57192 8.40213 4.75557C8.68835 4.93043 8.7196 5.18929 8.54866 5.46672C7.97426 6.40352 7.41062 7.34619 6.80497 8.2615C6.70435 8.41291 6.40055 8.5106 6.20518 8.49008C6.07038 8.47641 5.96097 8.21656 5.85938 8.09153Z" fill="#32675B"/>
<path d="M8.65054 2.45508C8.78241 2.64166 9.01686 2.83019 9.01393 3.01384C9.01099 3.17404 8.71305 3.47491 8.59192 3.45342C8.40241 3.42021 8.15722 3.18772 8.1162 2.99919C8.08396 2.85363 8.3272 2.64654 8.44833 2.46778C8.51573 2.46387 8.58313 2.45899 8.65151 2.45508H8.65054Z" fill="#32675B"/>
<path d="M14.1764 10.3929C13.981 10.5052 13.7759 10.7201 13.5952 10.7006C13.4311 10.683 13.1956 10.4261 13.1693 10.2473C13.1253 9.95718 13.3656 9.74618 13.6606 9.80968C13.8521 9.85071 14.0094 10.049 14.1813 10.178C14.1803 10.2493 14.1784 10.3215 14.1774 10.3929H14.1764Z" fill="#32675B"/>
<path d="M17.7031 5.33411C17.7051 4.21365 18.6223 3.3003 19.7428 3.30225C20.8486 3.3042 21.7883 4.24491 21.7844 5.34583C21.7805 6.45065 20.8388 7.3855 19.734 7.38257C18.6214 7.37964 17.7012 6.45163 17.7031 5.33508V5.33411ZM19.7223 6.39204C20.283 6.40278 20.7812 5.92022 20.7929 5.3556C20.8037 4.79781 20.3201 4.30059 19.7535 4.2879C19.1899 4.2752 18.6976 4.75385 18.6888 5.32238C18.68 5.88896 19.1547 6.38032 19.7223 6.39204Z" fill="#32675B"/>
</svg>
