<svg width="24" height="24" viewBox="0 0 24 24" fill="none" xmlns="http://www.w3.org/2000/svg">
<path d="M4.43941 6.27497V16.3015C4.64238 16.3015 4.82302 16.3015 5.00366 16.3015C7.82793 16.3015 10.6522 16.3015 13.4765 16.3015C14.2142 16.3015 14.3989 16.4882 14.402 17.2372C14.405 18.0825 14.4111 18.9279 14.401 19.7742C14.3847 21.1057 13.4958 21.9906 12.1592 21.9947C9.85962 22.0018 7.559 22.0018 5.2594 21.9947C3.94012 21.9906 3.0085 21.0844 3.00648 19.7732C2.99734 14.5986 2.99836 9.42398 3.00648 4.24937C3.0085 2.92806 3.92287 2.0137 5.2391 2.00761C7.55595 1.99746 9.87281 1.99746 12.1897 2.00761C13.4907 2.0137 14.3756 2.90472 14.402 4.20573C14.4101 4.61166 14.4081 5.01759 14.402 5.42353C14.3918 6.05881 14.1777 6.27395 13.5445 6.27395C10.704 6.27598 7.86243 6.27395 5.02193 6.27395C4.84027 6.27395 4.65862 6.27395 4.44144 6.27395L4.43941 6.27497ZM4.41709 17.7283C4.41709 18.4671 4.4039 19.143 4.42216 19.8168C4.43535 20.2898 4.72154 20.5688 5.19851 20.5699C7.5316 20.577 9.86571 20.5719 12.1988 20.5749C12.6108 20.5749 12.9376 20.3852 12.966 19.9904C13.0198 19.2435 12.9812 18.4905 12.9812 17.7283H4.4181H4.41709ZM4.41607 4.81767H13.0127C13.0127 4.58223 13.0249 4.3955 13.0107 4.21182C12.9711 3.70644 12.7022 3.43345 12.1988 3.43142C9.86672 3.42431 7.53464 3.4233 5.20257 3.43243C4.70124 3.43446 4.4384 3.72166 4.41709 4.2311C4.40897 4.4158 4.41607 4.6005 4.41607 4.81767Z" fill="#32675B"/>
<path d="M12.4422 14.8339C11.6923 14.8247 11.4223 14.2899 11.7207 13.6861C12.4595 12.1882 13.2115 10.6964 13.9574 9.20258C14.1309 8.8555 14.2933 8.50234 14.48 8.16238C14.6962 7.76761 15.1163 7.61944 15.4613 7.81733C15.8521 8.04161 15.9302 8.40594 15.7465 8.77939C14.819 10.669 13.8802 12.5525 12.9192 14.4249C12.8126 14.6319 12.5397 14.7537 12.4422 14.8339Z" fill="#32675B"/>
<path d="M18.4608 11.2858C17.9026 10.746 17.3861 10.2609 16.8868 9.75954C16.5052 9.37593 16.4758 8.9497 16.7833 8.65134C17.0928 8.35095 17.5109 8.38647 17.8976 8.76703C18.5349 9.39318 19.1681 10.0254 19.7953 10.6627C20.2327 11.1072 20.2408 11.4492 19.8146 11.8856C19.1783 12.5381 18.5328 13.1805 17.8833 13.8199C17.5109 14.1852 17.0542 14.2146 16.766 13.9122C16.4748 13.6068 16.5174 13.1836 16.9 12.802C17.3993 12.3047 17.9107 11.8186 18.4598 11.2858H18.4608Z" fill="#32675B"/>
<path d="M8.95067 11.2941C9.50883 11.835 10.0112 12.312 10.5013 12.8001C10.886 13.1827 10.9306 13.6069 10.6383 13.9114C10.342 14.2199 9.90664 14.1894 9.52608 13.8139C8.87659 13.1736 8.22913 12.5292 7.5908 11.8776C7.19705 11.4758 7.19908 11.0952 7.59588 10.6903C8.23522 10.0388 8.88065 9.39334 9.53217 8.75501C9.91882 8.37648 10.342 8.35213 10.6444 8.66977C10.9245 8.96407 10.89 9.38624 10.5338 9.74447C10.0345 10.2468 9.52202 10.737 8.95169 11.2941H8.95067Z" fill="#32675B"/>
<path d="M8.74444 18.4398C8.9809 18.4398 9.21938 18.4256 9.45381 18.4439C9.84046 18.4743 10.0789 18.6814 10.1074 19.0812C10.1358 19.479 9.93585 19.7753 9.55833 19.8088C8.99104 19.8606 8.41056 19.8545 7.84327 19.8017C7.45256 19.7652 7.27598 19.4506 7.31353 19.064C7.35108 18.6732 7.59058 18.4591 7.98332 18.4408C8.23601 18.4287 8.49073 18.4388 8.74343 18.4388L8.74444 18.4398Z" fill="#32675B"/>
</svg>
