<svg width="24" height="24" viewBox="0 0 24 24" fill="none" xmlns="http://www.w3.org/2000/svg">
<path d="M23.0112 13.8935C22.9005 14.1294 22.7097 14.275 22.4858 14.4007C21.5812 14.9084 20.68 15.4229 19.7835 15.9443C19.4933 16.1131 19.228 16.1196 18.9374 15.9461C18.403 15.627 17.8605 15.3217 17.3158 15.0199C17.2495 14.9833 17.1281 14.9673 17.0721 15.0039C16.3698 15.4595 15.6753 15.9267 14.9489 16.4111C15.0737 16.4856 15.1784 16.5502 15.2852 16.6109C15.5379 16.7543 15.6632 16.9661 15.6623 17.2606C15.6589 18.3707 15.6598 19.4807 15.6619 20.5912C15.6623 20.8763 15.5418 21.0851 15.2959 21.225C14.3202 21.7818 13.3445 22.3381 12.3697 22.8962C12.1234 23.037 11.887 23.0339 11.639 22.891C10.6779 22.3377 9.71467 21.7874 8.74886 21.2423C8.46941 21.0847 8.34885 20.8595 8.351 20.54C8.35789 19.473 8.3609 18.4056 8.34971 17.3386C8.34583 16.9829 8.47199 16.7315 8.79321 16.5769C8.88148 16.5342 8.96329 16.4778 9.07094 16.4141C8.59514 16.0963 8.14389 15.7945 7.69263 15.4931C7.45452 15.3342 7.22157 15.1667 6.97485 15.022C6.90768 14.9824 6.78151 14.9781 6.71391 15.0151C6.1619 15.3178 5.61463 15.6292 5.07209 15.9491C4.79006 16.1153 4.52998 16.1157 4.24493 15.9504C3.30453 15.4035 2.36026 14.8644 1.41254 14.3309C1.12577 14.1695 0.997455 13.9443 1.00004 13.6153C1.00779 12.541 1.00779 11.4667 1.00004 10.3924C0.997885 10.0647 1.1206 9.83691 1.40866 9.67501C2.36284 9.13807 3.31315 8.59424 4.26 8.04482C4.53859 7.88335 4.79436 7.8911 5.06778 8.0517C5.61032 8.37077 6.15846 8.68122 6.70831 8.9878C6.76989 9.02225 6.8827 9.04033 6.93394 9.00718C7.64139 8.54688 8.34196 8.07668 9.07051 7.59141C8.92712 7.50658 8.80613 7.43554 8.686 7.36363C8.46467 7.23101 8.35358 7.03509 8.35358 6.77717C8.35358 5.64559 8.35315 4.51401 8.35358 3.38243C8.35358 3.0948 8.50041 2.90319 8.74456 2.76454C9.77624 2.17937 10.8053 1.58861 11.8353 1C11.9498 1 12.0644 1 12.1793 1C13.2024 1.5843 14.2238 2.17119 15.2494 2.75162C15.5078 2.89802 15.6619 3.09523 15.6615 3.40138C15.6602 4.52521 15.6606 5.64904 15.6611 6.77287C15.6611 7.0394 15.5444 7.23876 15.3157 7.37396C15.1999 7.44243 15.0841 7.5096 14.9454 7.59098C15.6766 8.07883 16.3819 8.55291 17.094 9.01622C17.1431 9.04808 17.2568 9.01923 17.3205 8.98392C17.8514 8.68811 18.3841 8.39445 18.9034 8.0784C19.2138 7.88937 19.4907 7.88765 19.805 8.07194C20.6929 8.59295 21.5889 9.10061 22.4871 9.6044C22.711 9.73013 22.9014 9.87567 23.0116 10.1116L23.0112 13.8935ZM8.09351 14.213C8.81776 14.6956 9.51832 15.1658 10.2253 15.6274C10.2783 15.6623 10.389 15.6589 10.448 15.627C10.8316 15.419 11.2131 15.2068 11.5851 14.9794C11.8736 14.8033 12.1427 14.805 12.4304 14.9794C12.8037 15.205 13.1843 15.419 13.5684 15.6253C13.6308 15.6589 13.7475 15.6541 13.8082 15.6171C14.1243 15.4216 14.4309 15.2098 14.74 15.0031C15.1301 14.7426 15.5198 14.4821 15.9211 14.2138C15.7265 14.0158 15.6994 13.7897 15.7011 13.5447C15.7076 12.5212 15.7071 11.4973 15.7011 10.4738C15.6998 10.2223 15.7231 9.98719 15.9224 9.79342C15.1943 9.30772 14.4817 8.82934 13.7635 8.36044C13.7183 8.33073 13.6153 8.35312 13.5576 8.38498C13.1817 8.59166 12.8058 8.79963 12.4394 9.02268C12.1449 9.2018 11.8706 9.20438 11.5748 9.02268C11.2097 8.79791 10.8338 8.58994 10.4566 8.38498C10.3959 8.35225 10.2848 8.33977 10.2335 8.37335C9.5209 8.83839 8.81431 9.31289 8.09179 9.79472C8.29675 9.99322 8.31354 10.2374 8.31225 10.4953C8.30622 11.5119 8.30622 12.5285 8.31225 13.5451C8.31354 13.7897 8.28598 14.0162 8.09265 14.2147L8.09351 14.213ZM9.64319 4.47483C9.64319 5.00316 9.66859 5.49575 9.63458 5.98446C9.61089 6.32549 9.72586 6.50892 10.029 6.65661C10.4755 6.87448 10.8975 7.14317 11.3625 7.40884C11.3625 6.83616 11.347 6.3018 11.3694 5.76874C11.3797 5.5246 11.2949 5.40145 11.0865 5.29165C10.6086 5.03976 10.1444 4.76117 9.64319 4.47483ZM14.3715 4.47698C13.9038 4.74394 13.4814 5.01263 13.0341 5.23094C12.7296 5.37949 12.619 5.56507 12.6431 5.90523C12.678 6.39266 12.6521 6.88482 12.6521 7.41056C13.2248 7.08332 13.7643 6.77717 14.2987 6.4637C14.3396 6.43959 14.3676 6.3595 14.3684 6.30482C14.3732 5.71104 14.3715 5.11726 14.3715 4.47698ZM4.01199 14.3288C4.01199 13.6851 4.01371 13.0913 4.00897 12.4975C4.00854 12.4437 3.97883 12.364 3.93749 12.3399C3.40314 12.026 2.86404 11.7203 2.29352 11.3935C2.29352 12.0428 2.29223 12.6551 2.29653 13.2674C2.29653 13.307 2.33098 13.3634 2.36586 13.3837C2.90194 13.695 3.44017 14.0015 4.01199 14.3288ZM5.30159 14.3296C5.87126 14.0041 6.40518 13.7031 6.93351 13.391C6.98346 13.3617 7.01532 13.2648 7.01705 13.1981C7.02566 12.8764 7.02092 12.5539 7.02092 12.2318C7.02092 11.9649 7.02092 11.6975 7.02092 11.3956C6.45039 11.7216 5.9169 12.0243 5.38728 12.3339C5.34422 12.3593 5.3059 12.4333 5.30504 12.485C5.29944 13.0857 5.30159 13.6868 5.30159 14.3296ZM18.7122 14.3271C18.7122 13.6777 18.7135 13.0654 18.7092 12.4532C18.7092 12.4135 18.673 12.3584 18.6377 12.3378C18.102 12.0264 17.5638 11.7199 16.9937 11.3935C16.9937 11.9438 17.0131 12.457 16.986 12.9681C16.9705 13.2579 17.0648 13.4147 17.3223 13.5447C17.7856 13.7785 18.2286 14.0519 18.7122 14.3271ZM20.0022 14.3296C20.5732 14.0033 21.1118 13.6967 21.6479 13.3854C21.6828 13.3651 21.7177 13.3087 21.7181 13.2691C21.7224 12.6573 21.7211 12.045 21.7211 11.3969C21.2427 11.6695 20.8074 11.9433 20.3484 12.1694C20.0715 12.3059 19.9764 12.473 19.9945 12.7791C20.0238 13.282 20.0022 13.7888 20.0022 14.3296ZM11.3621 21.2483C11.3621 20.6265 11.3578 20.0474 11.3655 19.4683C11.3673 19.3343 11.3203 19.265 11.2062 19.2022C10.7804 18.9675 10.3601 18.7229 9.93771 18.4818C9.84772 18.4305 9.75729 18.3797 9.64276 18.3152C9.64276 18.955 9.6406 19.5557 9.6462 20.1563C9.64663 20.2084 9.68366 20.2829 9.72672 20.3083C10.2563 20.6184 10.7903 20.9211 11.3621 21.2483ZM14.371 18.3152C13.9008 18.5838 13.4771 18.8512 13.0306 19.0717C12.7378 19.2164 12.6013 19.389 12.6448 19.7266C12.6792 19.994 12.6517 20.2696 12.6517 20.5417V21.2492C13.2205 20.9241 13.7544 20.6218 14.2836 20.3122C14.3271 20.2868 14.3667 20.2132 14.3671 20.1611C14.3727 19.5604 14.371 18.9597 14.371 18.3152ZM10.3003 3.36262C10.8695 3.68858 11.3991 3.99645 11.9356 4.29226C11.986 4.31982 12.0868 4.29011 12.1479 4.25738C12.4063 4.11916 12.659 3.97061 12.9131 3.82464C13.1701 3.67695 13.4263 3.5284 13.7131 3.36306C13.1469 3.03882 12.6164 2.73225 12.0816 2.43385C12.0385 2.40974 11.9546 2.42438 11.9063 2.45107C11.3828 2.74387 10.863 3.04184 10.3003 3.36262ZM2.94973 10.2834C3.51208 10.6042 4.03093 10.9056 4.55711 11.1928C4.61868 11.2264 4.73709 11.2083 4.80513 11.1713C5.28092 10.9095 5.75069 10.6369 6.22175 10.3661C6.26094 10.3437 6.29409 10.3101 6.34404 10.2709C5.80365 9.96221 5.28351 9.66296 4.76034 9.37016C4.71255 9.34346 4.62815 9.32968 4.5851 9.35337C4.04988 9.65133 3.51897 9.95791 2.94973 10.2834ZM17.6508 10.2834C18.2157 10.6059 18.7346 10.9074 19.2612 11.1946C19.3223 11.2281 19.4407 11.207 19.5092 11.1691C19.9785 10.9108 20.4423 10.6412 20.9069 10.3743C20.9512 10.3489 20.9904 10.3136 21.0473 10.2718C20.5017 9.96006 19.982 9.6608 19.4584 9.36801C19.411 9.34131 19.3266 9.33055 19.2831 9.35466C18.7488 9.65262 18.2183 9.95877 17.6508 10.2834ZM13.7161 17.2038C13.3639 17.0019 13.05 16.8206 12.7348 16.6415C12.4988 16.5076 12.2603 16.2729 12.0239 16.2742C11.7789 16.2755 11.533 16.5032 11.291 16.6384C10.9698 16.8176 10.6521 17.0027 10.3024 17.2025C10.8695 17.5272 11.4 17.8338 11.9352 18.1322C11.9783 18.1563 12.0627 18.1429 12.1104 18.1158C12.634 17.823 13.1542 17.5246 13.7161 17.2038Z" fill="#32675B"/>
</svg>
