<svg width="24" height="24" viewBox="0 0 24 24" fill="none" xmlns="http://www.w3.org/2000/svg">
<path d="M13.8291 23H13.3358C13.2983 22.9718 13.2648 22.9358 13.2223 22.9173C12.1125 22.4442 11.9674 21.3054 12.9057 20.5706C13.0378 20.4664 13.1257 20.2299 13.1276 20.0538C13.1454 18.5967 13.1375 17.1387 13.1375 15.6806C13.1375 15.0859 13.1375 14.4922 13.1375 13.8955H10.2903C10.2903 14.1136 10.2903 14.2897 10.2903 14.4669C10.2903 16.7347 10.2903 19.0016 10.2903 21.2694C10.2903 22.0004 10.2282 22.0617 9.46753 22.0627C7.95713 22.0646 6.44673 22.0578 4.93632 22.0705C4.78144 22.0714 4.60386 22.1483 4.47758 22.2428C4.16188 22.4783 3.86987 22.744 3.56798 22.9981H2.97605C2.87641 22.9484 2.77578 22.9007 2.67713 22.8491C2.17892 22.5873 1.93919 22.1766 1.95991 21.6218C1.97964 21.103 2.24206 20.7283 2.70475 20.5083C3.21184 20.2689 3.78601 20.2903 4.11058 20.7098C4.48547 21.1945 4.92547 21.1448 5.40197 21.1458C6.02547 21.1478 6.64996 21.1458 7.27345 21.1458H9.33928V13.878H6.94789C6.94789 14.61 6.95085 15.3176 6.94691 16.0261C6.94296 16.6218 6.83641 16.725 6.21883 16.7289C5.47991 16.7338 4.74099 16.7114 4.00305 16.7425C3.81363 16.7503 3.58081 16.872 3.45453 17.015C3.08753 17.4326 2.64753 17.635 2.10493 17.5319C1.47453 17.4122 1.14996 16.9683 1 16.3795V16.0875C1.57713 14.7112 2.52422 14.5594 3.55121 15.6758C3.59955 15.7283 3.67749 15.7867 3.7426 15.7877C4.49238 15.7955 5.24215 15.7925 5.99982 15.7925V13.879C5.88242 13.8683 5.78771 13.8605 5.693 13.8498C3.31247 13.5958 1.58897 11.3776 1.9461 9.05716C2.22529 7.23899 3.35883 6.19559 5.0626 5.67973C5.41874 5.57169 5.58054 5.40818 5.69892 5.06265C6.38359 3.0761 7.78054 1.81078 9.81578 1.22873C10.1591 1.13043 10.5152 1.07495 10.8655 1C11.2926 1 11.7208 1 12.148 1C12.1746 1.01752 12.2003 1.04769 12.2289 1.05159C14.3243 1.30854 15.9028 2.33442 16.983 4.12728C17.0491 4.23727 17.2593 4.29275 17.4122 4.31513C18.0554 4.41052 18.7371 4.38327 19.3409 4.58475C21.2143 5.20962 22.3765 7.25262 22.2019 9.42508C22.044 11.3961 21.0604 12.7607 19.1801 13.4644C18.6671 13.6561 18.1284 13.7836 17.5848 13.9452V16.9605C18.3593 16.9605 19.111 16.942 19.8608 16.9683C20.2041 16.98 20.4271 16.9041 20.6195 16.6004C20.7378 16.4135 20.9815 16.2685 21.1996 16.1829C21.9789 15.8772 22.6103 16.2646 23 17.2555V17.5474C22.9773 17.5903 22.9448 17.6302 22.9329 17.6759C22.7899 18.2619 22.4022 18.6103 21.8152 18.696C21.2647 18.7758 20.8414 18.5295 20.505 18.0896C20.4103 17.966 20.1834 17.8862 20.0157 17.8823C19.1613 17.8618 18.307 17.8735 17.4517 17.8725C16.6713 17.8716 16.6013 17.8025 16.6003 17.0433C16.6003 15.994 16.6003 14.9458 16.6003 13.8771H14.0954V14.4192C14.0954 16.2354 14.1033 18.0516 14.0885 19.8678C14.0856 20.2309 14.1457 20.481 14.4802 20.7205C14.7091 20.885 14.8639 21.25 14.9083 21.5468C15.0139 22.2612 14.6854 22.6554 13.8261 22.9981L13.8291 23ZM15.8811 4.61492C14.789 2.91355 13.2046 2.09207 11.196 2.20497C9.25937 2.31398 7.80323 3.25032 6.99722 5.03345C6.7861 5.49967 6.83148 6.1625 6.50296 6.47104C6.15767 6.79613 5.48978 6.76304 4.99354 6.9616C3.5374 7.54267 2.87049 8.79923 3.18915 10.2797C3.49892 11.7221 4.68673 12.676 6.17839 12.676C9.89372 12.676 13.611 12.748 17.3234 12.6507C19.7858 12.5864 21.1325 11.0087 21.0101 8.82454C20.9115 7.06769 19.9328 5.8121 18.4155 5.53276C17.4349 5.35172 16.5263 5.61549 15.6907 6.12649C15.3464 6.3377 15.0178 6.57422 14.6726 6.80587C14.4052 6.50316 14.1596 6.22479 13.8596 5.88413C14.5483 5.45198 15.1944 5.04513 15.8821 4.612L15.8811 4.61492Z" fill="#32675B"/>
</svg>
