<svg width="23" height="24" viewBox="0 0 23 24" fill="none" xmlns="http://www.w3.org/2000/svg">
<path d="M19.9841 15.3573H3.02377C3.02377 15.9507 2.99262 16.5353 3.03603 17.1144C3.06105 17.4453 3.42105 17.6623 3.79841 17.6644C4.4796 17.6679 5.16079 17.6654 5.84198 17.6654C9.97203 17.6654 14.1021 17.6654 18.2321 17.6659C18.5686 17.6659 18.7346 17.8104 18.7121 18.079C18.6922 18.3185 18.5426 18.4329 18.2439 18.4329C16.7451 18.4329 15.2464 18.4329 13.7477 18.4329C13.6548 18.4329 13.5623 18.4329 13.45 18.4329V19.2014C13.9152 19.2014 14.3804 19.1978 14.8456 19.2044C14.9528 19.206 15.0973 19.2075 15.1581 19.2718C15.2515 19.3709 15.3312 19.5221 15.3363 19.6548C15.3429 19.8279 15.2132 19.9449 15.0268 19.9678C14.9931 19.9719 14.9589 19.974 14.9247 19.974C12.634 19.974 10.3433 19.974 8.05254 19.9755C7.85083 19.9755 7.67926 19.9066 7.65884 19.6987C7.64607 19.568 7.70071 19.4036 7.78343 19.3004C7.84215 19.2274 7.99739 19.208 8.11024 19.2055C8.57798 19.1958 9.04624 19.2014 9.5339 19.2014V18.4329H9.26632C7.47807 18.4329 5.6893 18.4058 3.90156 18.4446C3.06513 18.4625 2.19552 17.8589 2.20318 16.7314C2.22258 13.9142 2.2093 11.0965 2.2093 8.27933C2.2093 7.0538 2.20522 5.82776 2.21083 4.60223C2.21441 3.81789 2.64028 3.23933 3.3562 3.0458C3.52573 2.99984 3.70854 2.9881 3.88573 2.9881C8.95279 2.98504 14.0193 2.98453 19.0864 2.98504C20.1302 2.98504 20.7618 3.61057 20.7623 4.64665C20.7644 8.55355 20.7628 12.4604 20.7623 16.3673C20.7623 16.3842 20.7639 16.4015 20.7633 16.4184C20.7567 16.7059 20.6035 16.8953 20.3783 16.8953C20.149 16.8953 19.9882 16.7079 19.9851 16.4225C19.981 16.0758 19.9841 15.7285 19.9841 15.3563V15.3573ZM19.9739 14.5561C19.9785 14.4734 19.9836 14.4228 19.9836 14.3728C19.9836 11.1047 19.9856 7.83712 19.9831 4.56904C19.9831 4.06504 19.6772 3.76733 19.1645 3.76682C14.0474 3.76427 8.93032 3.76172 3.81322 3.77193C3.61918 3.77193 3.40266 3.86997 3.23722 3.98231C3.00692 4.13908 2.99262 4.40921 2.99262 4.6727C2.99466 7.88104 2.99364 11.0894 2.99415 14.2977C2.99415 14.3799 3.00283 14.4616 3.00794 14.5561H19.9734H19.9739ZM10.3453 18.4456V19.181H12.6406V18.4456H10.3453Z" fill="#32675B"/>
<path d="M11.4968 16.1228C11.6245 16.1228 11.7522 16.1172 11.8793 16.1238C12.1055 16.1361 12.2572 16.2801 12.2618 16.4844C12.2674 16.7172 12.1397 16.8668 11.9212 16.8862C11.6347 16.9123 11.3431 16.9087 11.0556 16.8883C10.8432 16.8735 10.7156 16.6876 10.7273 16.4752C10.7385 16.2653 10.8805 16.1335 11.1144 16.1238C11.2415 16.1187 11.3692 16.1228 11.4968 16.1228Z" fill="#32675B"/>
<path d="M20.2314 17.8741C20.2237 18.0916 20.0552 18.2494 19.8356 18.2443C19.6125 18.2392 19.4613 18.0794 19.4649 17.8521C19.468 17.6346 19.6462 17.463 19.8545 17.4763C20.0715 17.4906 20.239 17.6668 20.2314 17.8741Z" fill="#32675B"/>
<path d="M10.3477 18.4453H12.643V19.1806H10.3477V18.4453Z" fill="white"/>
<path d="M11.4684 13.7959C9.36556 13.7959 7.26326 13.7959 5.16045 13.7959C5.07518 13.7959 4.9899 13.7985 4.90513 13.7929C4.68556 13.7786 4.56301 13.657 4.54462 13.4405C4.52624 13.2286 4.66258 13.0596 4.87552 13.0269C4.95875 13.0142 5.04556 13.0218 5.13033 13.0218C9.3865 13.0218 13.6427 13.0218 17.8993 13.0233C18.0076 13.0233 18.1516 13.0136 18.2154 13.0749C18.3191 13.1745 18.4396 13.3374 18.4243 13.4574C18.409 13.5779 18.2461 13.6902 18.1286 13.7811C18.0796 13.8194 17.98 13.7954 17.9039 13.7954C15.7588 13.7954 13.6136 13.7954 11.4689 13.7954L11.4684 13.7959Z" fill="#32675B"/>
<path d="M11.4778 5.30781C9.32445 5.30781 7.17058 5.30781 5.01722 5.3073C4.72973 5.3073 4.56581 5.18117 4.54488 4.95393C4.52445 4.73232 4.66998 4.55768 4.89262 4.5393C4.96053 4.53368 5.02896 4.53725 5.09688 4.53725C9.36122 4.53725 13.6261 4.53725 17.8904 4.53725C17.9502 4.53725 18.0099 4.5347 18.0691 4.53879C18.2923 4.55308 18.4434 4.70168 18.4455 4.90645C18.4475 5.11274 18.305 5.28074 18.0911 5.3027C17.9563 5.31649 17.8189 5.30679 17.6831 5.30679C15.6145 5.30679 13.5464 5.30679 11.4778 5.30679V5.30781Z" fill="#32675B"/>
<path d="M4.54077 8.75584C4.54077 8.40707 4.53975 8.05882 4.54077 7.71005C4.5423 7.39499 4.66332 7.24486 4.91507 7.24129C5.1663 7.2372 5.30877 7.40775 5.30979 7.72384C5.31183 8.3698 5.30979 9.01626 5.31081 9.66222C5.31132 10.0672 5.53601 10.3184 5.89243 10.3169C6.25192 10.3153 6.48018 10.0666 6.48171 9.66426C6.48426 9.00963 6.48171 8.35499 6.48324 7.70035C6.48375 7.39958 6.62213 7.23771 6.86877 7.24026C7.11081 7.24282 7.25124 7.41184 7.25175 7.70699C7.25277 8.38716 7.25481 9.06733 7.25175 9.7475C7.24818 10.5007 6.64205 11.0935 5.8812 11.0925C5.13056 11.0915 4.54945 10.5109 4.54077 9.75107C4.5372 9.41967 4.54026 9.08775 4.54077 8.75635V8.75584Z" fill="#32675B"/>
<path d="M16.9705 8.76411C16.9705 9.1042 16.9623 9.44479 16.972 9.78488C16.9889 10.3833 16.4338 11.1273 15.5412 11.0942C14.8692 11.0691 14.2672 10.4793 14.256 9.76343C14.2452 9.07458 14.2519 8.38573 14.2539 7.69688C14.2549 7.40531 14.4071 7.23475 14.6491 7.24037C14.8907 7.24599 15.0245 7.39714 15.026 7.68462C15.0291 8.34794 15.0224 9.01126 15.0275 9.67458C15.0306 10.0724 15.2742 10.3241 15.6275 10.3144C15.9732 10.3047 16.1933 10.0836 16.1954 9.72922C16.1994 9.04905 16.1938 8.36837 16.1969 7.6882C16.1979 7.39918 16.3552 7.23271 16.6034 7.24241C16.8362 7.2516 16.9639 7.38284 16.9685 7.64224C16.9751 8.01654 16.97 8.39084 16.97 8.76513L16.9705 8.76411Z" fill="#32675B"/>
<path d="M9.11243 10.029C8.95617 10.3323 8.8234 10.5968 8.68451 10.8582C8.56043 11.0926 8.35362 11.157 8.13251 11.0365C7.94766 10.9359 7.892 10.7239 8.00026 10.5069C8.19685 10.1122 8.40417 9.72258 8.58953 9.32224C8.63038 9.23339 8.63192 9.09399 8.59157 9.00514C8.41847 8.62777 8.22085 8.26114 8.03549 7.88888C7.89557 7.60752 7.94562 7.37824 8.16417 7.27458C8.39191 7.16633 8.58647 7.25773 8.73404 7.5442C8.85047 7.7699 8.96536 7.99662 9.0823 8.22182C9.08945 8.2356 9.10783 8.24326 9.13132 8.26216C9.25847 8.00939 9.38204 7.75867 9.51072 7.50999C9.64553 7.25007 9.8554 7.16786 10.0734 7.28377C10.2777 7.39254 10.3308 7.60599 10.2072 7.85671C10.0193 8.23714 9.83191 8.61858 9.63174 8.99288C9.56332 9.12054 9.57047 9.21807 9.63634 9.34216C9.83549 9.71645 10.0209 10.0984 10.2123 10.4773C10.3313 10.7122 10.2869 10.9231 10.0949 11.0308C9.86664 11.1585 9.66443 11.0936 9.5286 10.8388C9.39277 10.5845 9.26562 10.3262 9.11345 10.0285L9.11243 10.029Z" fill="#32675B"/>
<path d="M13.8162 6.38159C13.7697 6.5353 13.7493 6.61751 13.7207 6.69666C13.0941 8.44202 12.467 10.1869 11.8395 11.9317C11.7496 12.1819 11.5443 12.307 11.3365 12.2417C11.1016 12.1676 11.0071 11.9521 11.1041 11.6825C11.7358 9.92032 12.3705 8.15964 13.0022 6.39742C13.0803 6.17887 13.2233 6.02108 13.4536 6.08849C13.5981 6.13087 13.7084 6.28917 13.8167 6.38108L13.8162 6.38159Z" fill="#32675B"/>
<path d="M18.4442 9.16533C18.4442 9.65861 18.4457 10.1519 18.4437 10.6452C18.4421 10.9337 18.3109 11.0843 18.0668 11.0879C17.8232 11.0915 17.6787 10.9383 17.6777 10.6579C17.6751 9.65453 17.6751 8.65061 17.6777 7.64721C17.6782 7.39342 17.8345 7.23819 18.0663 7.24176C18.2951 7.24533 18.4416 7.40312 18.4431 7.65997C18.4462 8.16193 18.4442 8.66338 18.4442 9.16533Z" fill="#32675B"/>
</svg>
